<svg width="63" height="66" viewBox="0 0 63 66" fill="none" xmlns="http://www.w3.org/2000/svg">
<path d="M26.5 13.7344V0.794922H49.498L62.4375 13.7344H26.5Z" fill="#B90504"/>
<path d="M26.5 65.5898V52.6504H62.4375L49.498 65.5898H26.5Z" fill="#B90504"/>
<path d="M32.4479 39.1951L26.7637 43.6825V30.8004H32.4479" fill="white"/>
<path d="M41.9216 36.3867L38.9468 34.3414L36.2374 36.3562V24.6951H41.9216" fill="white"/>
<path d="M51.3953 33.853L45.711 38.4319V18.5898H51.3953" fill="white"/>
<path d="M56.7195 33.563L53.29 30.8004H62.7637V38.4319L59.3721 35.6998L45.711 46.613L39.1363 42.0035L31.9742 47.5898H26.7637L39.0226 37.913L45.711 42.4614" fill="white"/>
<path fill-rule="evenodd" clip-rule="evenodd" d="M22.082 65.5898H13.4883L0.5 52.6504V13.7344L13.4883 0.794922H22.082V65.5898ZM11.835 32.9062C8.4922 32.9062 6.82033 34.5635 6.82031 37.8779C6.82031 41.0981 8.33107 42.7079 11.3525 42.708C10.8615 44.5724 9.78499 46.0038 8.12305 47.002V50.5898C13.8831 48.8385 16.7636 44.912 16.7637 38.8105C16.7637 34.8748 15.1208 32.9064 11.835 32.9062ZM11.749 15.5898C8.42548 15.59 6.7637 17.2472 6.76367 20.5615C6.76367 23.8759 8.42546 25.533 11.749 25.5332C15.0729 25.5332 16.7354 23.876 16.7354 20.5615C16.7353 17.2471 15.0729 15.5898 11.749 15.5898Z" fill="#B90504"/>
</svg>
