<svg width="63" height="65" viewBox="0 0 63 65" fill="none" xmlns="http://www.w3.org/2000/svg">
<path d="M26.5 12.9395V0H49.498L62.4375 12.9395H26.5Z" fill="#B90504"/>
<path d="M26.5 64.7949V51.8555H62.4375L49.498 64.7949H26.5Z" fill="#B90504"/>
<path d="M32.4479 38.4002L26.7637 42.8876V30.0054H32.4479" fill="#333333"/>
<path d="M41.9216 35.5918L38.9468 33.5465L36.2374 35.5612V23.9002H41.9216" fill="#333333"/>
<path d="M51.3953 33.0581L45.711 37.637V17.7949H51.3953" fill="#333333"/>
<path d="M56.7195 32.7681L53.29 30.0054H62.7637V37.637L59.3721 34.9049L45.711 45.8181L39.1363 41.2086L31.9742 46.7949H26.7637L39.0226 37.1181L45.711 41.6665" fill="#333333"/>
<path fill-rule="evenodd" clip-rule="evenodd" d="M22.082 64.7949H13.4883L0.5 51.8555V12.9395L13.4883 0H22.082V64.7949ZM11.835 32.1113C8.4922 32.1113 6.82033 33.7685 6.82031 37.083C6.82031 40.3032 8.33107 41.913 11.3525 41.9131C10.8615 43.7775 9.78499 45.2089 8.12305 46.207V49.7949C13.8831 48.0435 16.7636 44.1171 16.7637 38.0156C16.7637 34.0798 15.1208 32.1115 11.835 32.1113ZM11.749 14.7949C8.42548 14.7951 6.7637 16.4523 6.76367 19.7666C6.76367 23.0809 8.42546 24.7381 11.749 24.7383C15.0729 24.7383 16.7354 23.0811 16.7354 19.7666C16.7353 16.4521 15.0729 14.7949 11.749 14.7949Z" fill="#B90504"/>
</svg>
